<?xml version="1.0" standalone="no"?>
<!DOCTYPE svg PUBLIC "-//W3C//DTD SVG 20010904//EN"
 "http://www.w3.org/TR/2001/REC-SVG-20010904/DTD/svg10.dtd">
<svg version="1.0" xmlns="http://www.w3.org/2000/svg"
 width="266.000000pt" height="266.000000pt" viewBox="0 0 266.000000 266.000000"
 preserveAspectRatio="xMidYMid meet">
<metadata>
Created by potrace 1.14, written by Peter Selinger 2001-2017
</metadata>
<g transform="translate(0.000000,266.000000) scale(0.100000,-0.100000)"
fill="#000000" stroke="none">
<path d="M175 2646 c-6 -8 -39 -51 -73 -96 -61 -77 -62 -81 -35 -74 30 7 90
60 155 137 l40 47 -39 0 c-22 0 -42 -6 -48 -14z"/>
<path d="M283 2594 c-32 -36 -87 -107 -123 -158 -36 -51 -87 -122 -113 -159
-40 -55 -48 -73 -45 -102 3 -36 3 -36 83 77 44 62 97 140 119 173 21 33 72 99
112 148 68 79 72 87 50 87 -18 0 -41 -18 -83 -66z"/>
<path d="M361 2558 c-102 -114 -196 -247 -292 -413 -57 -99 -63 -116 -67 -175
l-3 -65 20 25 c11 13 34 49 52 80 18 30 72 118 119 195 48 77 97 160 109 185
13 25 58 90 100 145 97 126 97 125 73 125 -12 0 -55 -39 -111 -102z"/>
<path d="M468 2585 c-24 -42 -83 -132 -133 -201 -127 -177 -166 -240 -245
-396 -38 -75 -74 -139 -80 -143 -13 -8 -13 -65 0 -65 6 0 10 4 10 8 0 5 24 45
54 90 30 44 80 129 111 189 56 105 165 276 172 269 9 -9 -119 -240 -173 -311
-27 -36 -107 -205 -100 -212 6 -6 77 100 110 165 26 50 42 70 29 35 -16 -44
-84 -185 -124 -258 -61 -110 -101 -202 -97 -223 3 -11 21 12 51 63 51 87 55
90 31 24 -21 -60 -66 -251 -60 -256 3 -3 10 15 16 38 37 147 177 545 187 535
2 -2 -3 -30 -11 -62 -19 -79 -50 -283 -43 -290 10 -11 54 159 92 356 29 148
46 212 72 265 18 39 31 62 29 53 -25 -89 -56 -272 -56 -326 0 -67 -23 -340
-39 -462 -5 -36 -7 -67 -5 -68 4 -5 41 69 70 138 l23 55 1 -50 c2 -50 2 -50
14 -20 7 17 19 65 27 107 14 82 28 86 29 8 0 -25 4 -49 8 -55 18 -25 31 -10
47 58 28 115 45 112 26 -6 -10 -62 0 -50 39 43 31 74 31 75 25 28 -3 -27 -4
-48 -1 -48 10 0 68 135 101 235 41 123 81 301 95 420 5 50 14 113 19 140 5 28
12 85 16 128 l7 77 -26 0 c-19 0 -27 -6 -30 -22 -3 -13 -16 -79 -30 -148 -14
-69 -35 -186 -47 -260 -21 -136 -37 -193 -25 -90 20 163 38 346 43 428 l5 93
-43 -3 -44 -3 -17 -95 c-10 -52 -31 -194 -48 -315 -17 -121 -33 -222 -36 -224
-7 -7 5 168 16 239 5 30 23 126 39 213 36 186 36 187 13 187 -15 0 -22 -16
-36 -77 -10 -43 -23 -85 -28 -93 -7 -12 -8 -11 -4 5 2 11 7 40 11 65 3 25 8
57 11 73 11 54 -24 29 -68 -48z m-21 -157 c-3 -8 -6 -5 -6 6 -1 11 2 17 5 13
3 -3 4 -12 1 -19z m28 -119 c-4 -45 -11 -93 -16 -107 -7 -22 -8 -20 -4 13 2
22 7 70 11 108 3 37 9 67 11 67 3 0 2 -36 -2 -81z m-59 -106 c-9 -59 -20 -155
-26 -213 -9 -94 -29 -206 -34 -198 -10 14 17 282 40 397 32 165 42 172 20 14z
m111 -455 c-3 -7 -5 -2 -5 12 0 14 2 19 5 13 2 -7 2 -19 0 -25z"/>
<path d="M870 2640 c0 -11 -7 -87 -16 -168 -17 -157 -24 -400 -12 -443 7 -23
1 -31 -51 -72 -60 -46 -88 -90 -111 -176 -5 -20 -21 -52 -36 -71 -35 -47 -86
-151 -114 -230 -16 -46 -24 -94 -26 -165 l-4 -100 14 65 c8 36 21 83 29 105
18 51 85 185 92 185 3 0 3 -39 -1 -87 -3 -50 -1 -122 5 -167 11 -75 14 -81 51
-114 47 -40 80 -98 80 -141 0 -20 -11 -43 -32 -67 -28 -31 -36 -35 -70 -32
-46 4 -49 -6 -8 -27 44 -23 109 -19 165 10 27 13 50 23 50 22 1 -1 7 -18 15
-37 16 -43 72 -130 84 -130 4 0 5 8 1 18 -15 39 -28 112 -21 119 12 12 62 -50
81 -100 16 -42 16 -51 3 -92 -9 -25 -12 -45 -8 -45 20 0 60 45 76 85 11 25 23
45 28 45 17 0 -14 -82 -58 -155 l-18 -30 21 25 c25 30 26 18 6 -40 -19 -53
-19 -71 -1 -45 7 11 21 52 31 90 22 90 33 110 34 65 2 -59 5 -80 12 -80 3 0
25 37 49 83 23 45 40 71 37 58 -4 -15 1 -34 12 -50 10 -14 21 -33 25 -41 3 -8
4 2 3 24 -3 32 -1 35 9 21 7 -9 15 -12 18 -7 9 16 10 98 1 113 -7 11 -6 12 7
2 8 -7 18 -10 21 -6 4 3 7 -1 7 -10 0 -10 8 -17 18 -16 10 0 12 3 5 6 -19 7
-16 23 5 24 14 0 13 3 -5 16 -16 11 -23 26 -23 49 0 45 13 49 49 15 32 -30 37
-31 22 -3 -4 9 -11 34 -14 54 l-6 38 29 -15 c16 -8 37 -15 47 -14 15 0 14 3
-6 17 -14 9 -34 25 -45 35 -17 15 -14 15 19 -3 58 -31 73 -44 84 -71 9 -21 10
-20 10 17 1 28 -7 53 -25 79 -21 31 -22 36 -7 30 34 -13 203 -19 203 -6 0 6
-15 11 -32 12 -24 0 -14 5 37 18 l70 16 -57 13 c-47 11 -63 20 -89 53 -26 32
-29 42 -19 54 19 23 20 65 4 90 -21 32 -2 36 59 13 67 -26 103 -30 175 -20 51
7 67 6 78 -6 8 -8 18 -11 22 -8 3 4 1 11 -6 15 -45 27 -121 99 -122 113 0 11
5 15 14 12 15 -6 30 33 15 41 -4 3 -6 12 -3 20 3 7 0 23 -6 35 -24 45 -1 29
33 -22 71 -110 96 -167 103 -240 l7 -70 -29 17 -29 17 28 -26 c21 -20 26 -31
21 -51 -3 -14 -2 -25 3 -25 13 0 14 -92 2 -107 -7 -7 -6 -14 1 -18 5 -3 10 -1
10 5 0 6 5 8 12 4 8 -5 9 -2 5 10 -4 9 -10 73 -13 141 l-7 125 54 1 c50 0 118
17 78 18 -24 1 -106 64 -91 69 10 3 9 9 -5 26 l-18 21 22 -19 c13 -10 20 -22
18 -26 -3 -5 10 -13 28 -19 26 -9 29 -8 17 2 -17 13 -130 153 -130 160 0 3 7
8 16 11 8 3 13 2 10 -3 -3 -5 10 -25 29 -44 34 -34 35 -34 29 -8 -4 14 -15 46
-25 70 -11 24 -19 45 -19 47 0 2 21 9 47 16 l47 11 -40 17 c-22 10 -65 46 -98
81 l-59 63 37 8 c20 4 51 15 69 25 l32 16 -70 12 c-120 21 -163 46 -297 171
-42 40 -90 80 -107 88 -16 9 -77 20 -136 25 -59 5 -108 11 -109 13 -6 7 23
238 37 298 9 36 19 91 22 123 l7 57 -81 0 -81 0 0 -57 c0 -58 14 -248 26 -355
l6 -58 -97 0 c-96 0 -96 0 -126 -32 -34 -37 -34 -34 -15 77 8 44 19 125 26
180 6 55 20 129 31 164 10 35 19 67 19 72 0 14 -128 11 -133 -3 -4 -10 -6 -10
-6 0 -1 8 -17 12 -46 12 -39 0 -45 -3 -45 -20z m890 -940 c0 -5 -2 -10 -4 -10
-3 0 -8 5 -11 10 -3 6 -1 10 4 10 6 0 11 -4 11 -10z m55 -30 c3 -5 -1 -10 -11
-10 -12 0 -15 -6 -12 -25 3 -13 1 -22 -3 -19 -15 9 -10 64 5 64 8 0 18 -4 21
-10z m-301 -151 c12 -25 13 -35 4 -53 -9 -15 -13 -17 -14 -6 -5 29 -10 90 -8
90 2 0 10 -14 18 -31z m436 -34 c0 -5 -5 -3 -10 5 -5 8 -10 20 -10 25 0 6 5 3
10 -5 5 -8 10 -19 10 -25z m-385 -35 c4 -6 3 -9 -2 -8 -10 3 -53 -24 -53 -34
0 -13 28 -9 33 5 2 6 7 10 10 6 4 -3 -6 -16 -22 -30 l-28 -25 -1 25 c0 15 9
36 21 49 23 24 33 27 42 12z m313 -57 c7 -7 10 -13 5 -13 -14 0 -53 30 -53 42
0 10 18 -1 48 -29z m-137 2 c24 -14 38 -25 30 -25 -14 0 -81 38 -81 46 0 7 7
4 51 -21z m283 -6 c-3 -5 -10 -7 -15 -3 -5 3 -7 10 -3 15 3 5 10 7 15 3 5 -3
7 -10 3 -15z m-635 -373 c-3 -3 -11 5 -18 17 -13 21 -12 21 5 5 10 -10 16 -20
13 -22z m-53 -62 c0 -25 -2 -30 -9 -19 -4 9 -6 21 -4 28 2 7 -3 21 -12 31 -15
18 -15 18 5 6 14 -8 20 -23 20 -46z"/>
<path d="M1564 2618 c28 -177 120 -528 138 -528 14 0 9 288 -7 420 -8 69 -15
131 -15 138 0 8 -19 12 -61 12 l-62 0 7 -42z"/>
<path d="M1745 2623 c4 -21 12 -84 19 -141 7 -56 16 -105 20 -109 6 -7 -2 225
-10 265 -2 12 -11 22 -19 22 -12 0 -14 -8 -10 -37z"/>
<path d="M1945 1301 c-3 -5 -2 -12 3 -15 5 -3 9 1 9 9 0 17 -3 19 -12 6z"/>
<path d="M1870 1250 c0 -5 5 -10 10 -10 6 0 10 5 10 10 0 6 -4 10 -10 10 -5 0
-10 -4 -10 -10z"/>
<path d="M1961 1173 c-1 -24 3 -43 8 -43 17 0 18 14 5 50 l-13 35 0 -42z"/>
<path d="M510 1191 c0 -6 4 -13 10 -16 6 -3 7 1 4 9 -7 18 -14 21 -14 7z"/>
<path d="M1917 1123 c-9 -9 -9 -43 1 -43 4 0 21 9 37 20 32 21 27 27 -7 9 -18
-10 -20 -9 -15 5 6 16 -4 22 -16 9z"/>
<path d="M2631 1066 c-9 -11 -10 -20 -1 -36 15 -28 -5 -57 -27 -39 -8 7 -12
18 -9 26 8 21 -8 15 -22 -8 -10 -16 -11 -24 -1 -35 10 -12 8 -19 -9 -37 -14
-14 -22 -17 -22 -8 0 8 -6 11 -15 7 -8 -3 -15 0 -15 7 0 16 -20 -14 -20 -31 0
-10 5 -10 20 -2 16 8 32 4 81 -20 33 -17 63 -29 65 -27 3 2 -19 16 -48 31 -50
25 -51 26 -18 22 19 -2 43 -7 53 -11 12 -5 17 -2 17 9 0 9 -8 16 -20 16 -29 0
-36 27 -14 51 12 13 19 36 19 60 0 21 -1 39 -1 39 -1 0 -7 -6 -13 -14z"/>
<path d="M2330 1025 c0 -5 5 -17 10 -25 5 -8 10 -10 10 -5 0 6 -5 17 -10 25
-5 8 -10 11 -10 5z"/>
<path d="M1447 964 c20 -28 122 -122 164 -152 14 -9 18 -20 14 -35 -5 -17 -4
-19 4 -7 6 8 11 29 11 46 0 52 16 62 150 90 69 14 132 30 140 35 18 11 2 8
-108 -15 -141 -31 -190 -23 -381 61 -10 4 -8 -4 6 -23z m82 -38 c15 -8 20 -16
12 -20 -6 -4 -11 -3 -11 2 0 5 -10 14 -22 20 -13 6 -18 11 -13 11 6 0 21 -6
34 -13z m64 -52 c-2 -6 3 -14 13 -18 11 -4 15 -2 11 8 -4 10 -1 13 9 9 7 -3
14 1 14 8 0 7 3 10 6 7 3 -3 -1 -17 -8 -30 -7 -12 -14 -25 -15 -27 -1 -1 -8 2
-15 8 -7 6 -23 20 -36 30 l-23 19 24 -2 c14 0 23 -6 20 -12z"/>
<path d="M1973 970 c-13 -5 -23 -12 -23 -15 0 -9 16 -5 36 10 22 16 19 18 -13
5z"/>
<path d="M1460 814 c0 -32 117 -184 141 -184 11 0 19 5 19 10 0 6 -7 10 -15
10 -19 0 -19 15 1 45 14 22 14 26 -1 49 -23 35 -28 33 -23 -13 2 -23 -1 -37
-6 -34 -5 4 -6 -1 -2 -12 5 -15 4 -16 -9 -5 -12 10 -13 15 -4 20 6 4 8 13 5
19 -10 15 -29 14 -20 -1 4 -8 3 -10 -2 -5 -5 5 -9 12 -9 16 0 4 -17 27 -37 51
-21 24 -38 39 -38 34z"/>
<path d="M2622 795 c12 -14 25 -25 30 -25 4 0 -2 11 -14 25 -12 14 -25 25 -30
25 -4 0 2 -11 14 -25z"/>
<path d="M2220 766 c0 -2 8 -10 18 -17 15 -13 16 -12 3 4 -13 16 -21 21 -21
13z"/>
<path d="M1633 621 c1 -3 -9 -18 -21 -31 -22 -23 -62 -91 -62 -105 0 -17 19
-1 26 23 5 20 8 23 11 10 3 -10 8 -18 13 -18 5 0 12 -16 16 -35 3 -19 10 -32
15 -29 5 3 9 -15 9 -40 0 -48 -4 -51 -50 -36 -24 8 -23 8 8 9 28 1 32 4 31 29
-2 24 -2 24 -6 4 -4 -18 -9 -22 -26 -16 -22 7 -37 22 -37 37 0 5 4 5 10 2 11
-7 24 38 17 57 -3 7 -6 1 -6 -14 -1 -18 -6 -28 -16 -28 -18 0 -20 16 -2 23 7
4 6 6 -4 6 -23 1 -31 -31 -30 -124 0 -113 27 -193 98 -294 2 -3 13 5 25 16
l20 21 -28 17 c-16 9 -20 13 -9 9 11 -4 30 -7 42 -7 l22 1 -21 -29 -22 -29 23
-24 c14 -15 34 -24 50 -24 l27 1 -28 58 c-15 32 -28 63 -28 68 0 5 -5 22 -10
37 -10 25 -12 26 -27 12 -14 -15 -18 -14 -49 15 -19 16 -34 34 -34 39 0 4 9
-1 20 -12 24 -24 43 -25 59 -6 17 20 4 84 -18 89 -12 4 -13 5 -1 6 12 1 14 13
12 57 -5 67 12 135 46 187 36 55 46 45 11 -11 -38 -62 -52 -147 -39 -239 12
-87 19 -109 65 -215 37 -86 38 -88 72 -88 20 0 32 4 28 10 -18 29 -52 141 -42
137 6 -2 16 -21 22 -43 18 -62 36 -104 46 -104 12 0 12 1 -16 62 -14 29 -25
62 -24 73 0 18 1 17 10 -4 7 -19 12 -21 24 -11 8 6 20 8 26 4 9 -5 10 -2 6 9
-3 10 -4 17 -1 17 8 0 22 -44 17 -53 -3 -5 -14 -1 -24 9 -11 10 -19 12 -19 6
0 -7 9 -17 20 -24 11 -7 20 -16 20 -21 0 -4 -9 -3 -20 3 -24 13 -26 0 -7 -44
l13 -30 13 33 14 32 18 -28 c11 -15 19 -22 19 -14 0 11 4 9 14 -5 8 -10 18
-16 22 -12 4 4 2 14 -5 22 -9 11 -8 15 5 20 25 9 27 8 20 -19 -6 -25 8 -36 17
-12 4 9 6 9 6 0 1 -7 6 -13 11 -13 6 0 10 28 10 63 1 62 1 62 14 27 13 -38 45
-99 46 -89 0 4 -16 51 -35 105 -20 54 -35 107 -34 118 3 26 -11 76 -20 76 -4
0 -11 -4 -16 -8 -6 -5 -36 -19 -68 -32 -49 -19 -60 -21 -68 -9 -5 8 -9 17 -9
20 0 12 43 50 100 89 33 23 58 45 55 51 -4 5 -25 -6 -48 -24 -66 -54 -99 -73
-91 -54 3 8 1 18 -5 22 -21 13 -10 35 52 102 57 63 57 69 -1 18 -23 -20 -24
-20 -38 -1 -18 26 -18 50 2 66 8 8 19 20 24 29 7 14 -1 16 -59 17 -36 1 -101
10 -143 22 -43 11 -76 17 -75 13z m187 -115 c-5 -15 -10 -37 -9 -49 l0 -22 9
21 c5 12 14 25 20 29 15 9 32 -15 25 -34 -4 -9 0 -11 12 -7 15 5 15 4 -1 -9
-11 -8 -23 -15 -28 -15 -4 0 -8 -5 -8 -11 0 -5 5 -7 12 -3 7 5 8 3 3 -6 -6
-10 -12 -8 -26 8 -9 12 -20 22 -23 22 -2 0 -7 -21 -9 -47 -3 -44 -4 -42 -5 14
-2 55 22 152 35 140 2 -2 -1 -16 -7 -31z m-28 -11 c-2 -14 -8 -28 -13 -31 -10
-6 -11 2 -3 34 9 30 22 28 16 -3z m-25 -77 c-3 -8 -6 -5 -6 6 -1 11 2 17 5 13
3 -3 4 -12 1 -19z m70 -66 c-10 -10 -17 -25 -18 -33 0 -11 -2 -11 -6 -1 -5 12
23 52 35 52 3 0 -2 -8 -11 -18z m-237 -27 c14 -8 21 -14 15 -14 -5 0 -21 6
-35 14 -14 8 -20 14 -15 14 6 0 21 -6 35 -14z m167 -7 c-3 -8 -6 -5 -6 6 -1
11 2 17 5 13 3 -3 4 -12 1 -19z m83 12 c0 -5 -5 -10 -11 -10 -5 0 -7 5 -4 10
3 6 8 10 11 10 2 0 4 -4 4 -10z m-53 -57 c-3 -10 -5 -4 -5 12 0 17 2 24 5 18
2 -7 2 -21 0 -30z m52 20 c-7 -10 -14 -19 -15 -21 -1 -1 -7 4 -14 13 -11 13
-10 14 3 10 8 -4 18 -2 22 4 3 6 9 11 12 11 3 0 -1 -8 -8 -17z m-82 -25 c-3
-8 -6 -5 -6 6 -1 11 2 17 5 13 3 -3 4 -12 1 -19z m40 -60 c-3 -7 -5 -2 -5 12
0 14 2 19 5 13 2 -7 2 -19 0 -25z m58 24 c6 -4 11 -15 11 -24 1 -14 -2 -15
-16 -8 -9 5 -20 6 -24 3 -3 -3 -6 -1 -6 5 0 7 8 12 18 12 14 0 15 2 2 10 -8 5
-10 10 -5 10 6 0 15 -4 20 -8z m65 -22 c0 -5 -2 -10 -4 -10 -3 0 -8 5 -11 10
-3 6 -1 10 4 10 6 0 11 -4 11 -10z m37 -42 c-3 -7 -5 -2 -5 12 0 14 2 19 5 13
2 -7 2 -19 0 -25z m-177 12 c0 -5 -2 -10 -4 -10 -3 0 -8 5 -11 10 -3 6 -1 10
4 10 6 0 11 -4 11 -10z m65 0 c-8 -13 1 -13 26 0 16 9 21 7 29 -16 6 -15 9
-32 7 -38 -2 -6 -7 4 -11 21 -7 29 -10 32 -27 22 -21 -11 -43 -3 -34 12 4 5 8
9 11 9 3 0 2 -4 -1 -10z m95 -20 c0 -5 -4 -10 -10 -10 -5 0 -10 5 -10 10 0 6
5 10 10 10 6 0 10 -4 10 -10z m10 -30 c0 -5 -5 -10 -11 -10 -5 0 -7 5 -4 10 3
6 8 10 11 10 2 0 4 -4 4 -10z m56 -45 c14 -25 25 -48 22 -50 -2 -2 -16 18 -31
46 -35 62 -27 65 9 4z m-66 -44 c-1 -13 -29 45 -29 59 0 8 6 0 14 -19 8 -18
15 -36 15 -40z m34 47 c6 -25 -8 -46 -18 -29 -4 6 -1 11 6 11 8 0 6 5 -5 11
-9 6 -15 14 -12 20 10 16 22 10 29 -13z"/>
<path d="M1843 463 c-7 -3 -13 -13 -13 -24 0 -13 5 -17 16 -12 11 4 12 8 4 13
-9 6 -9 9 1 12 8 3 12 8 9 10 -3 3 -11 3 -17 1z"/>
<path d="M2620 611 c0 -5 5 -13 10 -16 6 -3 10 -2 10 4 0 5 -4 13 -10 16 -5 3
-10 2 -10 -4z"/>
<path d="M976 575 c-14 -13 -26 -27 -26 -30 0 -8 57 32 65 45 12 19 -12 10
-39 -15z"/>
<path d="M2584 579 c-3 -6 -1 -16 5 -22 9 -9 14 -8 21 3 9 15 4 30 -10 30 -5
0 -12 -5 -16 -11z"/>
<path d="M2460 558 c-12 -22 -12 -22 6 -6 10 10 15 20 12 24 -4 3 -12 -5 -18
-18z"/>
<path d="M2256 537 c3 -10 9 -15 12 -12 3 3 0 11 -7 18 -10 9 -11 8 -5 -6z"/>
<path d="M807 483 c-34 -68 -49 -157 -52 -302 -1 -80 -6 -154 -10 -163 -5 -13
-3 -18 8 -18 13 0 15 24 16 163 2 162 10 219 45 301 19 46 14 61 -7 19z"/>
<path d="M2085 495 c-3 -8 -7 -22 -10 -31 -3 -8 -1 -13 4 -10 5 3 11 17 13 31
6 27 0 34 -7 10z"/>
<path d="M1065 400 c2 -47 9 -96 14 -110 10 -21 10 -19 5 17 -3 23 -9 72 -14
110 l-9 68 4 -85z"/>
<path d="M2369 463 c-13 -16 -12 -17 4 -4 16 13 21 21 13 21 -2 0 -10 -8 -17
-17z"/>
<path d="M1600 436 c0 -13 -6 -27 -12 -29 -8 -3 -6 -6 5 -6 12 -1 17 7 17 29
0 17 -2 30 -5 30 -3 0 -5 -11 -5 -24z"/>
<path d="M2533 365 c0 -33 2 -45 4 -27 2 18 2 45 0 60 -2 15 -4 0 -4 -33z"/>
<path d="M2159 383 c-13 -16 -12 -17 4 -4 16 13 21 21 13 21 -2 0 -10 -8 -17
-17z"/>
<path d="M2129 333 l-24 -26 27 19 c15 10 28 22 28 27 0 12 -5 8 -31 -20z"/>
<path d="M2224 285 c-17 -13 -17 -14 -1 -15 9 0 17 5 17 12 0 6 6 3 14 -8 8
-10 17 -16 20 -13 3 3 -2 13 -12 22 -16 15 -21 15 -38 2z"/>
<path d="M2180 260 c-9 -6 -10 -10 -3 -10 6 0 15 5 18 10 8 12 4 12 -15 0z"/>
<path d="M2211 200 c14 -31 19 -36 19 -24 0 6 -7 19 -16 30 -14 18 -14 18 -3
-6z"/>
<path d="M2233 118 c-19 -23 -24 -55 -11 -66 9 -7 17 -6 26 4 11 12 10 14 -3
14 -9 0 -13 5 -10 11 4 6 13 8 21 5 12 -5 12 -2 3 17 -16 30 -15 29 -26 15z"/>
<path d="M1518 92 c7 -5 10 -17 6 -28 -4 -13 -3 -15 3 -6 7 9 17 3 40 -23 46
-51 49 -43 6 14 -21 28 -45 50 -53 50 -12 1 -12 -1 -2 -7z"/>
<path d="M2533 57 c-31 -31 -30 -57 2 -57 19 0 25 5 23 16 -2 10 3 19 11 22 9
3 11 -1 6 -17 -3 -11 -2 -21 3 -21 20 0 21 44 2 62 -23 22 -20 22 -47 -5z"/>
<path d="M2600 65 c0 -5 5 -17 10 -25 5 -8 10 -10 10 -5 0 6 -5 17 -10 25 -5
8 -10 11 -10 5z"/>
<path d="M921 30 c14 -31 19 -36 19 -24 0 6 -7 19 -16 30 -14 18 -14 18 -3 -6z"/>
<path d="M1635 19 c-4 -6 -5 -12 -2 -15 7 -7 37 7 37 17 0 13 -27 11 -35 -2z"/>
<path d="M2250 9 c0 -5 5 -7 10 -4 6 3 10 8 10 11 0 2 -4 4 -10 4 -5 0 -10 -5
-10 -11z"/>
</g>
</svg>
